<svg width="500" height="461" viewBox="0 0 500 461" fill="none" xmlns="http://www.w3.org/2000/svg">
<path d="M180.928 71.505C190.935 68.2753 200.865 65.5534 211.071 63.8423C230.157 60.6425 249.322 60.4838 268.428 63.0057C286.298 65.3644 303.619 70.0756 320.08 77.6226C322.297 78.6392 324.622 79.4483 326.758 80.6087C328.346 81.4712 329.453 81.1611 330.666 80.0477C333.304 77.6274 336.003 75.3029 339.162 73.5263C347.458 68.8596 356.371 67.6691 365.757 68.0075C376.883 68.4087 386.739 72.8202 396.7 76.9825C406.149 80.9308 416.021 82.6051 426.183 82.8315C430.413 82.9257 434.647 82.8154 438.878 82.847C444.188 82.8866 447.764 86.3678 447.847 91.6905C447.948 98.1988 446.373 104.43 444.324 110.535C437.548 130.724 424.665 146.255 407.468 158.422C405.499 159.814 405.174 160.973 406.333 163.203C412.833 175.711 416.901 189.036 419.092 202.94C419.316 204.361 420.174 204.726 421.325 205.115C434.318 209.509 445.128 217.031 453.382 228.013C461.046 238.211 465.307 249.679 466.041 262.504C467.321 284.877 458.995 302.982 441.946 317.166C433.803 323.941 424.14 327.861 413.989 330.549C412.431 330.962 411.671 331.618 411.093 333.028C405.986 345.48 397.147 354.106 384.284 358.202C375.189 361.098 365.983 360.657 356.957 357.613C355.108 356.99 353.879 357.368 352.27 358.365C348.704 360.573 347.5 363.476 347.084 367.676C345.794 380.695 343.881 393.653 342.172 406.629C341.674 410.407 341.436 414.215 340.219 417.894C338.225 423.925 333.555 426.866 327.918 428.251C317.546 430.801 306.946 430.427 296.366 429.993C291.802 429.806 287.314 429.176 282.815 428.425C274.441 427.028 269.131 421.671 268.404 413.296C267.834 406.738 267.448 400.163 267.067 393.59C266.979 392.061 266.603 391.456 264.902 391.606C251.265 392.806 237.616 392.859 223.965 391.792C223.479 391.754 222.979 391.821 222.503 391.738C220.137 391.327 219.419 392.388 219.39 394.67C219.3 401.58 219.045 408.484 218.12 415.352C217.113 422.837 212.219 426.677 205.476 428.111C191.092 431.17 176.571 430.963 162.059 428.879C159.478 428.508 156.978 427.792 154.609 426.654C150.017 424.448 146.914 421.038 145.774 415.973C143.861 407.473 143.364 398.765 141.954 390.192C141.295 386.186 140.662 382.176 139.977 377.921C137.525 379.176 135.972 381.206 133.925 382.578C125.268 388.384 116.088 391.341 105.831 387.389C103.37 386.441 101.373 386.51 98.7593 387.101C86.91 389.783 76.346 386.992 67.7053 378.192C64.7465 375.178 65.4398 370.132 68.8908 367.669C70.9231 366.219 73.072 366.298 75.6547 368.184C79.9198 371.299 84.4715 373.704 89.7701 374.467C90.4112 374.559 91.0465 374.7 91.6899 374.763C91.9069 374.784 92.1408 374.632 92.7004 374.451C88.3557 367.147 87.2025 359.491 90.7299 351.662C94.4914 343.314 101.622 340.588 110.452 340.723C108.836 338.041 106.54 336.092 104.575 333.874C89.166 316.483 77.3325 297.053 70.5775 274.681C67.0568 263.021 65.0067 251.175 64.6951 238.962C64.3955 227.216 64.9032 215.573 67.1152 204.029C69.7954 190.041 74.5861 176.778 80.9927 164.082C83.0075 160.089 82.7296 160.881 79.6826 158.847C58.9633 145.02 45.3847 126.118 39.2965 101.93C38.4046 98.3861 37.8022 94.7223 38.1247 91.0605C38.6218 85.4151 42.619 82.1055 48.2495 82.5297C54.3461 82.989 60.4242 82.9502 66.5234 82.5115C75.6365 81.856 84.2608 79.5462 92.572 75.7523C99.5217 72.5799 106.611 69.6536 114.255 68.5587C129.083 66.4349 142.812 68.817 154.416 78.9983C156.687 80.9904 158.58 81.0708 161.176 79.7432C167.479 76.52 174.083 73.9602 180.928 71.505ZM399.2 184.976C397.417 180.175 395.564 175.397 393.887 170.559C393.251 168.723 392.413 168.102 390.496 168.77C389.056 169.272 387.508 169.515 385.943 169.03C382.992 168.115 381.771 165.85 381.207 163.068C380.627 160.207 381.955 158.195 384.191 156.641C389.465 152.976 394.802 149.399 400.024 145.661C414.381 135.383 425.026 122.279 430.43 105.254C431.105 103.128 431.708 100.971 431.603 98.6818C431.184 98.6389 430.946 98.5889 430.708 98.5938C415.669 98.9026 401.334 95.8976 387.634 89.668C378.617 85.5677 369.357 82.2846 359.196 83.17C350.897 83.8931 343.867 87.1493 338.56 93.7711C337.537 95.0482 337.422 95.8076 338.971 96.8311C351.212 104.919 361.858 114.77 371.098 126.159C374.994 130.961 378.901 135.751 382.156 141.03C382.911 142.254 383.369 143.471 382.608 144.918C380.534 148.864 375.394 149.979 371.965 147.145C370.326 145.79 369.005 144.134 367.731 142.437C356.195 127.072 342.861 113.643 326.11 103.915C323.134 102.187 321.509 99.8122 322.197 96.2788C322.444 95.0122 321.9 94.5517 320.819 94.1743C318.978 93.5314 317.146 92.8331 315.381 92.0069C299.266 84.4628 282.241 79.897 264.716 77.5059C249.21 75.3903 233.631 75.5386 218.075 78.0897C208.428 79.6717 198.909 81.5782 189.627 84.6443C181.357 87.3767 173.324 90.6998 165.431 94.3692C164.652 94.7312 163.63 95.0119 163.966 96.2512C164.928 99.7937 162.862 101.842 160.23 103.407C150.306 109.31 141.507 116.619 133.36 124.741C125.79 132.288 119.054 140.513 113.423 149.625C110.515 154.33 107.617 159.013 105.489 164.165C103.566 168.818 101.343 169.797 96.6457 168.415C94.978 167.924 94.7056 168.857 94.2107 169.928C86.624 186.348 81.1387 203.36 79.6103 221.495C78.7884 231.247 78.9117 240.984 80.2147 250.686C82.5508 268.08 88.4601 284.246 97.3555 299.316C101.99 307.168 107.35 314.515 113.379 321.392C124.186 333.718 136.449 344.333 150.416 352.883C169.181 364.37 189.749 371.083 211.328 374.705C220.375 376.223 229.552 377.072 238.747 377.219C253.665 377.456 268.451 376.1 283.074 373.099C292.254 371.215 301.147 368.401 309.896 365.05C329.706 357.461 347.427 346.768 361.62 330.734C363.823 328.244 365.88 325.649 367.381 322.72C367.221 322.477 367.161 322.304 367.039 322.214C366.517 321.829 365.991 321.443 365.44 321.102C357.542 316.206 351.255 309.624 346.375 301.834C335.835 285.008 332.102 267.012 338.824 247.813C345.843 227.763 359.428 213.866 379.345 206.301C385.546 203.946 391.985 202.711 398.624 202.453C402.909 202.287 403.13 201.898 402.395 197.631C401.676 193.458 400.544 189.392 399.2 184.976ZM420.206 318.368C427.269 316.02 433.378 312.121 438.828 307.086C456.162 291.069 461.209 266.476 452.11 245.608C439.316 216.266 406.973 204.471 378.426 217.204C352.033 228.977 336.69 261.777 351.159 290.267C361.033 309.709 376.91 320.054 398.53 321.66C405.829 322.202 412.925 320.814 420.206 318.368ZM68.6736 129.34C76.1453 138.591 85.5061 145.507 95.775 151.311C97.1047 152.062 97.3968 151.152 97.9227 150.262C105.063 138.18 113.334 126.941 123.13 116.87C130.402 109.393 138.218 102.542 146.964 96.8132C148.253 95.9692 148.589 95.1156 147.599 93.8411C142.628 87.4389 135.954 84.1004 128.037 83.1884C117.251 81.946 107.549 85.7 98.0203 90.0387C88.0986 94.5565 77.7374 97.3127 66.8725 98.2835C62.6108 98.6642 58.3566 98.8807 53.7683 98.4921C56.4691 110.043 61.2703 120.123 68.6736 129.34ZM309.258 381.382C300.779 384.178 292.303 386.987 283.451 388.414C282.247 388.608 281.911 389.299 281.982 390.486C282.185 393.892 282.16 397.314 282.45 400.711C282.736 404.064 282.858 407.434 282.912 411.1C288.748 408.707 294.098 408.922 299.442 411.002C304.076 412.805 304.088 412.775 305.581 407.951C305.605 407.874 305.618 407.791 305.651 407.718C306.009 406.911 306.233 405.858 307.344 405.896C308.446 405.934 308.711 406.9 308.857 407.816C309.082 409.227 309.278 410.642 309.489 412.075C309.93 412.049 310.204 412.111 310.392 412.01C315.098 409.49 320.108 409.02 325.303 409.761C326.773 409.971 326.841 408.89 326.956 407.915C327.238 405.498 327.407 403.066 327.757 400.66C329.134 391.203 329.616 381.643 331.436 371.531C324.279 376.079 316.815 378.347 309.258 381.382ZM204.408 391.843C205.072 388.857 203.08 388.365 200.855 387.927C189.832 385.754 179.187 382.336 168.726 378.259C164.118 376.464 159.746 374.171 155.178 372.14C154.684 373.421 155.043 374.508 155.21 375.609C155.626 378.336 156.015 381.067 156.4 383.799C157.518 391.75 158.64 399.7 159.734 407.653C159.977 409.419 160.568 410.149 162.61 409.644C166.831 408.602 170.991 409.218 174.999 410.881C178.807 412.462 178.809 412.456 179.666 408.289C179.715 408.051 179.76 407.809 179.843 407.581C180.086 406.914 180.145 406.021 181.064 405.956C182.08 405.883 182.44 406.758 182.684 407.514C183.031 408.59 183.188 409.726 183.484 410.82C183.811 412.028 184.425 412.687 185.772 411.937C191.358 408.826 197.282 409.099 203.328 410.293C203.688 404.253 204.046 398.268 204.408 391.843ZM386.814 340.693C390.218 338.381 393.499 335.958 395.06 331.781C394.499 331.57 394.209 331.388 393.904 331.357C389.948 330.957 385.981 330.615 382.236 329.126C380.958 328.617 380.492 329.534 379.947 330.347C377.96 333.312 376.055 336.329 373.557 338.924C371.737 340.815 370.05 342.835 368.035 345.099C374.745 344.75 380.914 344.099 386.814 340.693ZM119.282 370.411C117.967 372.093 116.652 373.775 115.02 375.862C122.421 374.583 128.51 372.202 131.913 365.499C134.268 360.861 134.248 360.828 130.092 357.607C127.632 355.701 125.125 353.857 122.17 351.632C122.17 355.322 122.276 358.317 122.141 361.301C121.998 364.432 120.754 367.285 119.282 370.411ZM103.61 355.84C101.186 359.721 101.573 365.304 104.762 368.574C106.786 365.121 109.316 362.066 109.248 357.819C109.22 356.126 109.517 354.153 107.544 353.414C105.72 352.731 104.959 354.635 103.61 355.84Z" fill="url(#paint0_linear_2007_340)"/>
<path d="M210.548 258.291C207.255 256.599 204.518 254.568 202.055 251.966C194.506 243.991 195.269 231.756 201.095 223.578C204.95 218.167 209.854 213.861 215.982 211.299C235.031 203.334 253.994 203.403 272.495 212.952C280.108 216.882 285.303 223.147 287.346 231.676C290.142 243.341 284.783 253.779 273.661 258.412C265.729 261.716 257.296 262.67 248.865 263.158C240.019 263.67 231.146 263.541 222.356 261.909C218.324 261.161 214.492 259.888 210.548 258.291ZM246.649 214.942C240.819 214.394 235.154 215.78 229.448 216.516C220.885 217.621 213.58 221.266 208.435 228.415C206.046 231.734 204.41 235.642 206.139 239.642C209.083 246.458 213.811 251.516 221.751 252.314C236.333 253.779 250.887 254.341 265.428 251.596C272.089 250.339 276.163 246.273 279.108 240.608C279.73 239.411 279.888 238.09 279.589 236.803C278.945 234.032 278.318 231.22 276.635 228.849C271.006 220.92 263.042 217.083 253.62 215.843C251.446 215.557 249.272 215.27 246.649 214.942Z" fill="url(#paint1_linear_2007_340)"/>
<path d="M222.425 282.277C221.582 279.774 222.575 278.186 224.444 276.916C226.358 275.616 228.164 275.628 230.076 277.002C231.567 278.073 232.539 279.581 233.755 280.88C239.964 287.511 252.27 285.492 256.023 277.212C256.426 276.324 256.777 275.41 257.227 274.547C258.758 271.614 261.173 270.577 263.857 271.657C266.472 272.71 267.928 275.573 267.138 278.489C266.045 282.525 263.761 285.817 260.612 288.571C250.803 297.151 235.677 297.124 226.52 288.48C224.712 286.774 223.332 284.802 222.425 282.277Z" fill="url(#paint2_linear_2007_340)"/>
<path d="M186.651 206.345C184.401 211.301 180.652 211.968 177.448 207.787C170.776 199.082 158.898 199.144 151.965 206.75C151.152 207.643 150.232 208.468 149.255 209.178C146.927 210.87 145.036 210.841 143.042 209.218C141.128 207.659 140.679 205.554 141.733 203.098C143.85 198.168 147.87 195.188 152.475 192.955C162.941 187.881 176.418 190.22 183.676 198.91C185.448 201.03 186.745 203.289 186.651 206.345Z" fill="url(#paint3_linear_2007_340)"/>
<path d="M316.437 190.804C326.771 189.149 335.431 191.851 342.358 199.555C343.161 200.448 343.827 201.51 344.361 202.59C345.428 204.748 344.947 207.586 343.425 208.912C341.605 210.498 339.214 210.537 336.905 208.931C334.908 207.541 333.312 205.68 331.275 204.299C323.897 199.3 314.724 200.024 308.967 207.541C308.573 208.054 308.134 208.542 307.664 208.986C305.78 210.763 303.627 211.049 301.697 209.81C299.669 208.508 298.799 205.961 299.743 203.618C301.869 198.343 305.941 194.983 310.951 192.666C312.634 191.889 314.465 191.434 316.437 190.804Z" fill="url(#paint4_linear_2007_340)"/>
<path d="M395.618 298.723C395.967 296.997 394.891 297.048 393.889 296.944C388.388 296.376 383.971 294.038 381.106 289.132C380.563 288.202 380.177 287.237 379.973 286.193C379.494 283.755 380.12 281.592 382.039 280.048C383.863 278.581 386.007 278.843 388.06 279.664C389.752 280.34 391.042 281.604 392.383 282.791C393.447 283.731 394.387 284.875 396.279 285.396C396.279 280.902 396.297 276.634 396.266 272.366C396.258 271.302 395.326 271.189 394.548 270.953C391.745 270.103 389.059 269.061 386.521 267.507C377.399 261.921 376.67 246.098 387.053 240.201C389.169 238.999 391.287 237.67 393.736 237.357C395.511 237.131 395.967 236.333 396.012 234.667C396.08 232.144 396.631 229.814 399.666 229.083C402.933 228.297 405.229 229.72 406.015 233.005C406.324 234.295 406.057 235.585 406.316 237.014C409.74 237.709 412.984 238.908 415.79 241.088C417.832 242.675 419.382 244.603 420.115 247.13C420.85 249.666 419.977 252.524 418.019 253.892C415.829 255.423 413.46 255.279 410.998 253.521C409.357 252.349 408.437 250.375 405.892 249.119C405.892 252.845 405.834 256.189 405.927 259.529C405.956 260.548 407.018 260.833 407.829 261.215C409.886 262.184 412.045 262.993 413.965 264.185C422.934 269.75 424.895 281.045 418.549 289.892C415.912 293.568 412.314 295.816 407.996 296.852C406.375 297.24 405.847 297.908 406.002 299.514C406.11 300.628 405.987 301.802 405.754 302.904C405.258 305.247 403.452 306.634 401.013 306.723C398.702 306.806 396.448 305.207 395.867 303.019C395.511 301.676 395.314 300.307 395.618 298.723ZM391.775 252.909C391.762 256.264 392.778 257.552 396.112 258.271C396.112 255.004 396.112 251.768 396.112 248.364C393.669 248.982 392.565 250.57 391.775 252.909ZM409.299 282.451C411.014 278.881 409.609 275.249 406.214 274.476C405.538 277.619 405.754 282.805 406.655 284.582C407.734 284.325 408.403 283.524 409.299 282.451Z" fill="url(#paint5_linear_2007_340)"/>
<path d="M266.607 231.643C267.501 235.189 267.216 238.456 265.787 241.595C264.695 243.996 262.848 245.646 260.158 245.596C257.548 245.546 255.801 243.804 254.909 241.467C253.419 237.562 253.066 233.552 254.736 229.586C255.667 227.376 257.174 225.67 259.738 225.476C262.316 225.281 263.992 226.828 265.284 228.826C265.807 229.636 266.134 230.573 266.607 231.643Z" fill="url(#paint6_linear_2007_340)"/>
<path d="M226.649 225.863C230.068 227.266 231.313 229.939 231.598 233.21C231.876 236.408 231.576 239.502 230.069 242.434C228.21 246.05 223.527 246.666 220.962 243.562C217.784 239.717 218.008 231.259 221.466 227.643C222.788 226.261 224.385 225.289 226.649 225.863Z" fill="url(#paint7_linear_2007_340)"/>
<defs>
<linearGradient id="paint0_linear_2007_340" x1="466.169" y1="61.262" x2="-26.1166" y2="195.952" gradientUnits="userSpaceOnUse">
<stop stop-color="#D36CFF"/>
<stop offset="0.115" stop-color="#C96AFF"/>
<stop offset="0.21" stop-color="#C068FF"/>
<stop offset="0.28" stop-color="#B766FF"/>
<stop offset="0.34" stop-color="#AE65FF"/>
<stop offset="0.4" stop-color="#A663FF"/>
<stop offset="0.489103" stop-color="#9D61FF"/>
<stop offset="0.657878" stop-color="#945FFF"/>
<stop offset="0.780239" stop-color="#854FF4"/>
<stop offset="0.992059" stop-color="#7438E0"/>
</linearGradient>
<linearGradient id="paint1_linear_2007_340" x1="288.078" y1="205.542" x2="188.784" y2="242.58" gradientUnits="userSpaceOnUse">
<stop stop-color="#D36CFF"/>
<stop offset="0.115" stop-color="#C96AFF"/>
<stop offset="0.21" stop-color="#C068FF"/>
<stop offset="0.28" stop-color="#B766FF"/>
<stop offset="0.34" stop-color="#AE65FF"/>
<stop offset="0.4" stop-color="#A663FF"/>
<stop offset="0.489103" stop-color="#9D61FF"/>
<stop offset="0.657878" stop-color="#945FFF"/>
<stop offset="0.780239" stop-color="#854FF4"/>
<stop offset="0.992059" stop-color="#7438E0"/>
</linearGradient>
<linearGradient id="paint2_linear_2007_340" x1="267.353" y1="271.24" x2="220.844" y2="292.141" gradientUnits="userSpaceOnUse">
<stop stop-color="#D36CFF"/>
<stop offset="0.115" stop-color="#C96AFF"/>
<stop offset="0.21" stop-color="#C068FF"/>
<stop offset="0.28" stop-color="#B766FF"/>
<stop offset="0.34" stop-color="#AE65FF"/>
<stop offset="0.4" stop-color="#A663FF"/>
<stop offset="0.489103" stop-color="#9D61FF"/>
<stop offset="0.657878" stop-color="#945FFF"/>
<stop offset="0.780239" stop-color="#854FF4"/>
<stop offset="0.992059" stop-color="#7438E0"/>
</linearGradient>
<linearGradient id="paint3_linear_2007_340" x1="186.656" y1="190.306" x2="142.785" y2="213.571" gradientUnits="userSpaceOnUse">
<stop stop-color="#D36CFF"/>
<stop offset="0.115" stop-color="#C96AFF"/>
<stop offset="0.21" stop-color="#C068FF"/>
<stop offset="0.28" stop-color="#B766FF"/>
<stop offset="0.34" stop-color="#AE65FF"/>
<stop offset="0.4" stop-color="#A663FF"/>
<stop offset="0.489103" stop-color="#9D61FF"/>
<stop offset="0.657878" stop-color="#945FFF"/>
<stop offset="0.780239" stop-color="#854FF4"/>
<stop offset="0.992059" stop-color="#7438E0"/>
</linearGradient>
<linearGradient id="paint4_linear_2007_340" x1="344.935" y1="190.337" x2="301.016" y2="213.679" gradientUnits="userSpaceOnUse">
<stop stop-color="#D36CFF"/>
<stop offset="0.115" stop-color="#C96AFF"/>
<stop offset="0.21" stop-color="#C068FF"/>
<stop offset="0.28" stop-color="#B766FF"/>
<stop offset="0.34" stop-color="#AE65FF"/>
<stop offset="0.4" stop-color="#A663FF"/>
<stop offset="0.489103" stop-color="#9D61FF"/>
<stop offset="0.657878" stop-color="#945FFF"/>
<stop offset="0.780239" stop-color="#854FF4"/>
<stop offset="0.992059" stop-color="#7438E0"/>
</linearGradient>
<linearGradient id="paint5_linear_2007_340" x1="422.261" y1="228.871" x2="370.252" y2="235.615" gradientUnits="userSpaceOnUse">
<stop stop-color="#D36CFF"/>
<stop offset="0.115" stop-color="#C96AFF"/>
<stop offset="0.21" stop-color="#C068FF"/>
<stop offset="0.28" stop-color="#B766FF"/>
<stop offset="0.34" stop-color="#AE65FF"/>
<stop offset="0.4" stop-color="#A663FF"/>
<stop offset="0.489103" stop-color="#9D61FF"/>
<stop offset="0.657878" stop-color="#945FFF"/>
<stop offset="0.780239" stop-color="#854FF4"/>
<stop offset="0.992059" stop-color="#7438E0"/>
</linearGradient>
<linearGradient id="paint6_linear_2007_340" x1="267.117" y1="225.459" x2="250.853" y2="228.029" gradientUnits="userSpaceOnUse">
<stop stop-color="#D36CFF"/>
<stop offset="0.115" stop-color="#C96AFF"/>
<stop offset="0.21" stop-color="#C068FF"/>
<stop offset="0.28" stop-color="#B766FF"/>
<stop offset="0.34" stop-color="#AE65FF"/>
<stop offset="0.4" stop-color="#A663FF"/>
<stop offset="0.489103" stop-color="#9D61FF"/>
<stop offset="0.657878" stop-color="#945FFF"/>
<stop offset="0.780239" stop-color="#854FF4"/>
<stop offset="0.992059" stop-color="#7438E0"/>
</linearGradient>
<linearGradient id="paint7_linear_2007_340" x1="231.691" y1="225.695" x2="216.029" y2="228.108" gradientUnits="userSpaceOnUse">
<stop stop-color="#D36CFF"/>
<stop offset="0.115" stop-color="#C96AFF"/>
<stop offset="0.21" stop-color="#C068FF"/>
<stop offset="0.28" stop-color="#B766FF"/>
<stop offset="0.34" stop-color="#AE65FF"/>
<stop offset="0.4" stop-color="#A663FF"/>
<stop offset="0.489103" stop-color="#9D61FF"/>
<stop offset="0.657878" stop-color="#945FFF"/>
<stop offset="0.780239" stop-color="#854FF4"/>
<stop offset="0.992059" stop-color="#7438E0"/>
</linearGradient>
</defs>
</svg>
